<?xml version="1.0" encoding="utf-8"?>
<!-- Generated by IcoMoon.io -->
<!DOCTYPE svg PUBLIC "-//W3C//DTD SVG 1.1//EN" "http://www.w3.org/Graphics/SVG/1.1/DTD/svg11.dtd">
<svg version="1.1" xmlns="http://www.w3.org/2000/svg" xmlns:xlink="http://www.w3.org/1999/xlink" width="27" height="27" viewBox="0 0 27 27">
<path fill="#010101" d="M13.5 0.333c-7.455 0-13.5 6.044-13.5 13.5 0 5.965 3.868 11.025 9.232 12.81 0.675 0.125 0.923-0.293 0.923-0.649 0-0.322-0.013-1.385-0.018-2.513-3.756 0.817-4.548-1.593-4.548-1.593-0.614-1.56-1.499-1.975-1.499-1.975-1.225-0.838 0.093-0.821 0.093-0.821 1.355 0.095 2.069 1.391 2.069 1.391 1.204 2.064 3.158 1.467 3.929 1.122 0.121-0.872 0.471-1.468 0.857-1.805-2.999-0.341-6.151-1.499-6.151-6.672 0-1.474 0.527-2.678 1.391-3.624-0.14-0.34-0.603-1.713 0.131-3.573 0 0 1.134-0.363 3.714 1.384 1.077-0.299 2.232-0.449 3.379-0.454 1.147 0.005 2.303 0.155 3.382 0.454 2.577-1.747 3.709-1.384 3.709-1.384 0.735 1.86 0.273 3.233 0.133 3.573 0.865 0.945 1.389 2.15 1.389 3.624 0 5.185-3.158 6.327-6.164 6.661 0.484 0.419 0.916 1.24 0.916 2.5 0 1.806-0.016 3.26-0.016 3.705 0 0.359 0.243 0.78 0.927 0.648 5.361-1.787 9.224-6.846 9.224-12.808 0-7.456-6.044-13.5-13.5-13.5z"></path>
</svg>
