<?xml version="1.0" encoding="UTF-8" standalone="no"?>
<svg width="27px" height="27px" viewBox="0 0 27 27" version="1.1" xmlns="http://www.w3.org/2000/svg" xmlns:xlink="http://www.w3.org/1999/xlink" xmlns:sketch="http://www.bohemiancoding.com/sketch/ns">
    <!-- Generator: Sketch 3.2.2 (9983) - http://www.bohemiancoding.com/sketch -->
    <title>109</title>
    <desc>Created with Sketch.</desc>
    <defs></defs>
    <g id="Page-1" stroke="none" stroke-width="1" fill="none" fill-rule="evenodd" sketch:type="MSPage">
        <g id="social-cvg" sketch:type="MSLayerGroup" transform="translate(-52.000000, 0.000000)" fill="#000000">
            <g id="109" transform="translate(52.000000, 0.000000)" sketch:type="MSShapeGroup">
                <path d="M1.72991176,26.983125 L7.74144118,26.983125 L7.74144118,11.6623125 L0.813,13.678875 L1.72991176,26.983125 Z" id="Shape"></path>
                <path d="M15.8170882,11.6623125 L15.8170882,9.4449375 L10.1117647,11.6623125 L10.8248235,26.983125 L15.7155882,26.983125 C13.5747059,14.5850625 19.0761765,14.4846562 19.0761765,14.4846562 C24.3755,14.38425 20.4016471,26.983125 20.4016471,26.983125 L25.2915588,26.983125 C32.2225588,0.97790625 15.8170882,11.6623125 15.8170882,11.6623125 L15.8170882,11.6623125 Z" id="Shape"></path>
                <path d="M0.388205,6.4723266 C1.49171411,8.46532344 4.6122021,9.08266143 7.35801,7.8511896 C10.1038179,6.61971777 11.4351641,4.00576944 10.331655,2.0127726 C9.22814589,0.0197757605 6.1076579,-0.597562233 3.36185,0.6339096 C0.616042102,1.86538143 -0.715304113,4.47932976 0.388205,6.4723266 L0.388205,6.4723266 Z" id="Oval"></path>
            </g>
        </g>
    </g>
</svg>