<?xml version="1.0" encoding="UTF-8" standalone="no"?>
<svg width="25px" height="27px" viewBox="0 0 25 27" version="1.1" xmlns="http://www.w3.org/2000/svg" xmlns:xlink="http://www.w3.org/1999/xlink" xmlns:sketch="http://www.bohemiancoding.com/sketch/ns">
    <!-- Generator: Sketch 3.2.2 (9983) - http://www.bohemiancoding.com/sketch -->
    <title>Shape</title>
    <desc>Created with Sketch.</desc>
    <defs></defs>
    <g id="Page-1" stroke="none" stroke-width="1" fill="none" fill-rule="evenodd" sketch:type="MSPage">
        <g id="social-cvg" sketch:type="MSLayerGroup" transform="translate(-157.000000, 0.000000)" fill="#000000">
            <path d="M179.333351,5.46411701 C176.655233,2.44697308 172.564489,1.21935999 168.543808,1.82852608 C167.284444,-0.0276586689 164.58268,-0.564264804 162.38361,0.653223644 C160.214316,1.85299397 159.327157,4.31834479 160.289633,6.28927551 C156.216405,10.8099291 155.830189,17.3335747 159.666957,21.6576415 C162.367846,24.7017845 166.511136,25.9234915 170.565972,25.2738268 C171.855988,27.047327 174.4982,27.5417471 176.656108,26.3461954 C178.807011,25.1565497 179.700301,22.7207291 178.776359,20.7582356 C182.787406,16.2392695 183.149101,9.76455958 179.333351,5.46411701 L179.333351,5.46411701 Z M175.295155,10.7365254 C173.970983,10.8166788 171.489038,7.62825968 170.248941,9.54097369 C169.698955,10.3880689 173.055799,12.4948386 173.888661,13.4642733 C174.703131,14.4134586 176.20596,18.379788 171.322641,20.7776412 C167.105786,22.8498183 163.174434,19.616682 162.473815,18.307228 C161.77845,17.0087424 161.781077,15.1196526 163.879433,15.1196526 C165.120405,15.1196526 169.085913,19.4538439 170.375053,16.2839866 C171.489038,13.5444267 163.149913,12.8660755 166.774744,7.62825968 C168.594603,4.99838339 173.970983,4.51999396 176.700773,8.18595883 C177.34797,9.05414705 176.61845,10.656372 175.295155,10.7365254 L175.295155,10.7365254 Z" id="Shape" sketch:type="MSShapeGroup"></path>
        </g>
    </g>
</svg>