<?xml version="1.0" encoding="UTF-8" standalone="no"?>
<svg width="28px" height="27px" viewBox="0 0 28 27" version="1.1" xmlns="http://www.w3.org/2000/svg" xmlns:xlink="http://www.w3.org/1999/xlink" xmlns:sketch="http://www.bohemiancoding.com/sketch/ns">
    <!-- Generator: Sketch 3.2.2 (9983) - http://www.bohemiancoding.com/sketch -->
    <title>094</title>
    <desc>Created with Sketch.</desc>
    <defs></defs>
    <g id="Page-1" stroke="none" stroke-width="1" fill="none" fill-rule="evenodd" sketch:type="MSPage">
        <g id="social-cvg" sketch:type="MSLayerGroup" transform="translate(-104.000000, 0.000000)" fill="#000000">
            <g id="094" transform="translate(104.000000, 0.000000)" sketch:type="MSShapeGroup">
                <path d="M27.1065455,5.3578125 C26.5227879,5.0034375 22.7563636,4.1158125 22.7529697,4.11496875 C22.5281212,2.63840625 21.7246061,0 18.8363636,0 C15.4246061,0 15.0546667,2.06465625 14.0161212,4.20271875 C13.0810909,6.129 7.25793939,10.1444062 0,9.5124375 C0,9.5124375 2.21030303,15.0946875 6.80145455,17.2605938 C6.79806061,14.7825 8.79454545,12.4967812 11.648,11.9188125 C14.5404848,11.3340938 17.3124848,12.71025 18.2441212,15.0499687 C20.774303,12.9465 21.9163636,10.3528125 22.4305455,8.33625 L22.4288485,8.35734375 C22.4288485,8.35903125 27.690303,5.71303125 27.1065455,5.3578125 L27.1065455,5.3578125 Z M20.3653333,5.3595 C20.0242424,6.38128125 19.0527273,6.9795 18.1991515,6.696 C17.3421818,6.4125 16.9281212,5.35528125 17.2692121,4.3335 C17.6111515,3.31171875 18.5818182,2.7135 19.4387879,2.997 C20.2932121,3.2805 20.7089697,4.3385625 20.3653333,5.3595 L20.3653333,5.3595 Z" id="Shape"></path>
                <path d="M17.9395152,15.3005625 C16.7940606,13.3523438 14.2706667,12.2740313 11.648,12.8039063 C9.12460606,13.3135313 7.27406061,15.1621875 6.88036364,17.296875 C7.86460606,17.7499688 8.95830303,18.0435938 10.1606061,18.093375 L10.7791515,23.7203438 L8.80133333,24.5084063 L8.80133333,24.9994688 L10.7791515,24.6054375 L11.817697,26.2288125 L12.4107879,25.7875313 L11.817697,24.6569063 L13.4493333,24.9522188 L13.6470303,24.2654063 L11.7676364,23.871375 L10.7689697,18.1035 C11.5648485,18.0824063 12.4065455,17.9507813 13.2932121,17.695125 L14.3775758,21.124125 L12.5923636,22.275 L12.6882424,22.7567813 L14.5498182,21.9889688 L15.8853333,23.378625 L16.3808485,22.8301875 L15.5790303,21.8345625 L17.2361212,21.80925 L17.2938182,21.0945938 L15.3745455,21.0743438 L13.9821818,17.4698438 C14.1629091,17.4040313 14.3487273,17.3331563 14.532,17.2572188 C15.874303,16.7045625 16.9968485,16.0371563 17.9395152,15.3005625 L17.9395152,15.3005625 Z" id="Shape"></path>
            </g>
        </g>
    </g>
</svg>